<?xml version="1.0" encoding="UTF-8" standalone="no"?>
<!-- Created with Inkscape (http://www.inkscape.org/) -->

<svg
   xmlns:dc="http://purl.org/dc/elements/1.1/"
   xmlns:cc="http://creativecommons.org/ns#"
   xmlns:rdf="http://www.w3.org/1999/02/22-rdf-syntax-ns#"
   xmlns:svg="http://www.w3.org/2000/svg"
   xmlns="http://www.w3.org/2000/svg"
   version="1.1"
   width="866.9129"
   height="543.05798"
   id="svg2">
  <defs
     id="defs4">
    <filter
       color-interpolation-filters="sRGB"
       id="filter3939">
      <feGaussianBlur
         stdDeviation="0.12617935"
         id="feGaussianBlur3941" />
    </filter>
    <filter
       x="-0.35034168"
       y="-0.93784112"
       width="1.7006834"
       height="2.8756821"
       color-interpolation-filters="sRGB"
       id="filter4290">
      <feGaussianBlur
         stdDeviation="5.1182484"
         id="feGaussianBlur4292" />
    </filter>
    <filter
       x="-0.019000446"
       y="-0.14301986"
       width="1.0380009"
       height="1.2860397"
       color-interpolation-filters="sRGB"
       id="filter4298">
      <feGaussianBlur
         stdDeviation="12.134724"
         id="feGaussianBlur4300" />
    </filter>
    <filter
       x="-0.091605611"
       y="-0.10038971"
       width="1.1832112"
       height="1.2007794"
       color-interpolation-filters="sRGB"
       id="filter4402">
      <feGaussianBlur
         stdDeviation="0.53979122"
         id="feGaussianBlur4404" />
    </filter>
    <filter
       color-interpolation-filters="sRGB"
       id="filter4406">
      <feGaussianBlur
         stdDeviation="0.7387926"
         id="feGaussianBlur4408" />
    </filter>
    <filter
       color-interpolation-filters="sRGB"
       id="filter4410">
      <feGaussianBlur
         stdDeviation="0.7387926"
         id="feGaussianBlur4412" />
    </filter>
    <filter
       x="-0.091605611"
       y="-0.10038971"
       width="1.1832112"
       height="1.2007794"
       color-interpolation-filters="sRGB"
       id="filter4414">
      <feGaussianBlur
         stdDeviation="0.53979122"
         id="feGaussianBlur4416" />
    </filter>
    <filter
       color-interpolation-filters="sRGB"
       id="filter4575">
      <feGaussianBlur
         stdDeviation="5.1202552"
         id="feGaussianBlur4577" />
    </filter>
  </defs>
  <metadata
     id="metadata7">
    <rdf:RDF>
      <cc:Work
         rdf:about="">
        <dc:format>image/svg+xml</dc:format>
        <dc:type
           rdf:resource="http://purl.org/dc/dcmitype/StillImage" />
        <dc:title></dc:title>
      </cc:Work>
    </rdf:RDF>
  </metadata>
  <rect
     width="866.9129"
     height="543.05798"
     x="-2.0727539e-07"
     y="1.9189454e-06"
     id="rect3945"
     style="fill:#666666;fill-opacity:1;fill-rule:evenodd;stroke:none" />
  <path
     d="m 689.17998,70.85478 c -4.64619,0.0894 -11.59334,1.64342 -21.43808,5.25 -32.69405,12.55041 -53.84931,29.72692 -65.96913,43.46875 -22.60351,11.7746 -46.82437,26.10449 -72.07624,43.21875 -63.64953,42.83409 -102.45869,69.96875 -102.45869,69.96875 -4.67339,3.27054 -5.23931,4.73008 -3.84874,4.65625 l 19.5715,0.0937 -20.63091,12.96875 c -12.81126,4.37285 -26.68603,10.69098 -33.80971,15.03125 -1.23814,0.14106 -7.10121,3.84633 -7.14787,4.90625 4.96482,3.82428 27.75141,2.21797 47.25,0 1.96208,-0.21264 10.61721,-5.77591 10.23282,-6.09375 2.38588,-1.72512 4.75139,-3.83753 6.75961,-6.03125 0.12275,-0.0762 0.25271,-0.14191 0.37497,-0.21875 l 32.39513,-20.375 14.44649,0.0937 -24.5955,15.75 c -7.51802,2.96108 -14.79756,6.3041 -20.04566,9.15625 -3.32624,1.63286 -6.21685,3.20104 -8.45141,4.5625 -1.23814,0.14106 -7.10121,3.84633 -7.14786,4.90625 4.96482,3.82428 27.75137,2.21797 47.25,0 1.96207,-0.21264 10.61717,-5.77591 10.23277,-6.09375 3.80301,-2.74973 7.62399,-6.49757 9.83598,-9.9375 l 28.29666,-18.125 18.82145,0.0937 c 3.99517,0.0877 6.95502,-1.72711 12.28625,-4.875 -0.14364,0.0914 24.39346,-14.74971 68.33492,-40.9375 7.80631,-1.20755 16.96344,-3.94138 26.31785,-7.5 16.48396,-6.27089 32.91193,-14.35282 46.57373,-20.6875 13.66171,-6.33468 23.06499,-10.28379 28.86733,-11.25 5.80224,-0.96621 10.97782,0.68244 9.21308,10.34375 a 2.6219034,11.099902 64.0796 1 0 20.06358,-8.75 c 1.66889,-9.13759 -1.80807,-13.1085 -10.89602,-12.59375 -1.29821,0.0735 -2.67604,0.21408 -4.20536,0.46875 -12.23489,2.03736 -28.91455,9.43708 -43.80986,16.34375 -14.8953,6.90667 -29.53135,13.97429 -40.93512,18.3125 -4.43779,1.68827 -8.47513,3.06001 -12.19236,4 12.82642,-7.62508 26.52885,-15.75961 41.88674,-24.84375 25.78975,-14.7721 44.18842,-27.93026 56.17391,-39.125 29.26988,-13.26761 58.57196,-29.12523 64.9108,-40.90625 4.4643,-10.79826 -22.69006,-3.23373 -49.40695,7.21875 -6.79139,-9.18622 -30.20142,-10.38274 -64.93293,-1.375 3.27863,-6.32763 2.55957,-11.26039 -6.09698,-11.09375 z"
     id="path4466"
     style="fill:#4d4d4d;fill-opacity:1;stroke:none;filter:url(#filter4575)" />
  <g
     transform="translate(-52.845669,-275.64522)"
     id="text4232"
     style="font-size:78.00930786px;font-style:normal;font-variant:normal;font-weight:normal;font-stretch:normal;text-align:start;line-height:125%;letter-spacing:0px;word-spacing:0px;writing-mode:lr-tb;text-anchor:start;fill:#e6e6e6;fill-opacity:1;stroke:none;font-family:Keifont;-inkscape-font-specification:Keifont">
    <path
       d="m 293.06912,646.37342 c -3.91065,0 -7.77048,-0.71102 -11.57951,-2.13307 -3.80906,-1.42204 -7.18641,-3.47892 -10.13207,-6.17066 l 7.84664,-9.5988 c 2.08227,1.77757 4.39309,3.22501 6.93247,4.34232 2.59013,1.06654 5.00253,1.59981 7.23719,1.5998 5.02791,10e-6 7.54188,-1.70137 7.54192,-5.10413 -4e-5,-1.77754 -1.11736,-3.25037 -3.35197,-4.41849 -0.60947,-0.35549 -2.20927,-1.06652 -4.7994,-2.13307 l -7.46573,-3.12342 c -3.40277,-1.37123 -6.22146,-3.37733 -8.45609,-6.0183 -2.18386,-2.69169 -3.27579,-5.99286 -3.27578,-9.90352 -1e-5,-4.92632 1.9807,-9.06549 5.94211,-12.4175 3.9614,-3.40269 8.98934,-5.10406 15.08384,-5.10412 3.4535,6e-5 6.83086,0.66029 10.13206,1.9807 3.35193,1.26974 6.27219,3.14887 8.76081,5.63739 l -6.93246,8.76081 c -3.96145,-2.9964 -7.94825,-4.49463 -11.96041,-4.49467 -2.1331,4e-5 -3.83447,0.43174 -5.10413,1.29507 -1.21891,0.86343 -1.82836,2.05693 -1.82834,3.58051 -2e-5,1.3713 0.58403,2.46322 1.75216,3.27578 1.21887,0.76185 3.25036,1.70141 6.09448,2.8187 0.45706,0.15239 0.78717,0.27936 0.99035,0.3809 l 7.23719,2.89488 c 7.61805,3.09805 11.4271,8.40532 11.42715,15.92182 -5e-5,5.07874 -2.00615,9.37027 -6.0183,12.87458 -3.96145,3.50433 -9.3195,5.25649 -16.07418,5.25649"
       id="path4686" />
    <path
       d="m 324.83658,645.30688 0,-58.04989 13.94111,0 0,22.09248 19.12143,0 0,-22.09248 13.78875,0 0,58.04989 -13.78875,0 0,-23.84464 -19.12143,0 0,23.84464 -13.94111,0"
       id="path4688" />
    <path
       d="m 385.1719,645.30688 0,-58.04989 13.94111,0 0,58.04989 -13.94111,0"
       id="path4690" />
    <path
       d="m 412.44468,645.30688 0,-58.04989 13.94111,0 0,58.04989 -13.94111,0"
       id="path4692" />
    <path
       d="m 439.71747,645.30688 0,-58.04989 13.94112,0 0,58.04989 -13.94112,0"
       id="path4694" />
    <path
       d="m 466.99026,645.30688 0,-58.04989 13.94111,0 0,58.04989 -13.94111,0"
       id="path4696" />
    <path
       d="m 494.26304,645.30688 0,-58.04989 13.94111,0 0,58.04989 -13.94111,0"
       id="path4698" />
    <path
       d="m 521.53583,645.30688 0,-58.04989 13.94112,0 0,58.04989 -13.94112,0"
       id="path4700" />
    <path
       d="m 548.8086,645.30688 0,-58.04989 13.94112,0 0,58.04989 -13.94112,0"
       id="path4702" />
    <path
       d="m 576.0814,645.30688 0,-58.04989 13.94111,0 0,58.04989 -13.94111,0"
       id="path4704" />
    <path
       d="m 614.62898,645.30688 0,-46.47038 -15.69328,0 0,-11.57951 45.40385,0 0,11.57951 -15.76946,0 0,46.47038 -13.94111,0"
       id="path4706" />
    <path
       d="m 657.59503,624.28094 -1.98071,-26.4348 -0.45708,-12.26513 13.94111,0 -0.45708,12.26513 -2.05689,26.4348 -8.98935,0 m 4.49468,22.09248 c -2.33623,0 -4.29154,-0.8126 -5.86594,-2.43779 -1.57441,-1.67598 -2.36162,-3.73286 -2.36161,-6.17066 -10e-6,-2.38699 0.7872,-4.41848 2.36161,-6.09448 1.5744,-1.67596 3.52971,-2.51395 5.86594,-2.51397 2.38698,2e-5 4.34229,0.83801 5.86593,2.51397 1.57438,1.676 2.36159,3.70749 2.36161,6.09448 -2e-5,2.4378 -0.78723,4.49468 -2.36161,6.17066 -1.52364,1.62519 -3.47895,2.43779 -5.86593,2.43779"
       id="path4708" />
    <path
       d="m 688.5245,624.28094 -1.9807,-26.4348 -0.45709,-12.26513 13.94112,0 -0.45709,12.26513 -2.05688,26.4348 -8.98936,0 m 4.49468,22.09248 c -2.33623,0 -4.29154,-0.8126 -5.86594,-2.43779 -1.57441,-1.67598 -2.36161,-3.73286 -2.3616,-6.17066 -10e-6,-2.38699 0.78719,-4.41848 2.3616,-6.09448 1.5744,-1.67596 3.52971,-2.51395 5.86594,-2.51397 2.38698,2e-5 4.34229,0.83801 5.86593,2.51397 1.57439,1.676 2.36159,3.70749 2.36161,6.09448 -2e-5,2.4378 -0.78722,4.49468 -2.36161,6.17066 -1.52364,1.62519 -3.47895,2.43779 -5.86593,2.43779"
       id="path4710" />
  </g>
  <g
     transform="matrix(1,0,0.01964333,1,-69.365554,-275.64521)"
     id="g4430">
    <path
       d="m 451.50995,508.97757 35.71683,0.67474 -0.45436,24.05165 c -0.38524,18.87375 -35.69997,18.3668 -35.71683,-0.67472 z"
       id="rect3807"
       style="fill:#e6e6e6;fill-opacity:1;stroke:none" />
    <path
       d="m 484.01459,513.90039 a 15.202796,2.1213202 0 1 1 -30.40559,0 15.202796,2.1213202 0 1 1 30.40559,0 z"
       transform="matrix(1,0,0,0.2761974,-0.4375,372.83744)"
       id="path3871"
       style="fill:#cfcfcf;fill-opacity:1;fill-rule:evenodd;stroke:none;filter:url(#filter3939)" />
    <path
       d="m 431.72816,513.07647 124.71687,0.68471 c 4.13285,0.0877 4.24407,-1.74703 4.62826,-4.89492 0,0.12766 2.25232,-28.39501 8.04915,-77.07325 16.25132,-93.23453 -160.79215,-122.75915 -148.36297,6.6406 3.66596,42.83409 7.48183,69.96523 7.48183,69.96523 0.4664,3.27054 2.21231,4.75146 3.48686,4.67763 z"
       id="path2998"
       style="fill:#e6e6e6;stroke:none" />
    <path
       d="m 537.43421,509.14452 -35.72156,0.34275 0.23081,24.05483 c 0.20981,18.87652 35.52772,18.69781 35.72156,-0.34273 z"
       id="path3812"
       style="fill:#e6e6e6;fill-opacity:1;stroke:none" />
    <path
       d="m 455.02822,455.78952 -0.79491,10.48604 34.26743,2.61191 0.7949,-10.48604 -34.26742,-2.61191 z"
       transform="matrix(0.93291958,0,0,0.93291958,23.171284,29.185431)"
       id="path4276"
       style="font-size:medium;font-style:normal;font-variant:normal;font-weight:normal;font-stretch:normal;text-indent:0;text-align:start;text-decoration:none;line-height:normal;letter-spacing:normal;word-spacing:normal;text-transform:none;direction:ltr;block-progression:tb;writing-mode:lr-tb;text-anchor:start;baseline-shift:baseline;color:#000000;fill:#ff5555;fill-opacity:1;stroke:none;stroke-width:9;marker:none;visibility:visible;display:inline;overflow:visible;filter:url(#filter4290);enable-background:accumulate;font-family:Sans;-inkscape-font-specification:Sans" />
    <path
       d="m 428.77588,425.56361 c 1.90261,-22.29594 28.35791,-28.10999 67.40001,-27.97022 40.75765,0.96869 62.67075,9.72107 64.21385,28.69358 -1.00838,22.67242 -40.50942,30.71685 -67.64512,30.86369 -23.86774,0.33545 -65.25393,-11.10853 -63.96874,-31.58705 z"
       id="path3817"
       style="fill:#b3b3b3;fill-opacity:1;stroke:none" />
    <path
       d="m 455.02822,455.78952 -0.79491,10.48604 34.26743,2.61191 0.7949,-10.48604 -34.26742,-2.61191 z"
       transform="matrix(-0.93291958,0,0,0.93291958,955.88279,32.013858)"
       id="path4294"
       style="font-size:medium;font-style:normal;font-variant:normal;font-weight:normal;font-stretch:normal;text-indent:0;text-align:start;text-decoration:none;line-height:normal;letter-spacing:normal;word-spacing:normal;text-transform:none;direction:ltr;block-progression:tb;writing-mode:lr-tb;text-anchor:start;baseline-shift:baseline;color:#000000;fill:#ff5555;fill-opacity:1;stroke:none;stroke-width:9;marker:none;visibility:visible;display:inline;overflow:visible;filter:url(#filter4290);enable-background:accumulate;font-family:Sans;-inkscape-font-specification:Sans" />
    <path
       d="m 429.02588,420.26399 c 1.90261,-22.29594 28.35791,-28.10999 67.40001,-27.97022 40.75765,0.96869 62.67075,9.72107 64.21385,28.69358 -1.00838,22.67242 -40.50942,30.71685 -67.64512,30.86369 -23.86774,0.33545 -65.25393,-11.10853 -63.96874,-31.58705 z"
       id="path3819"
       style="fill:#b3b3b3;fill-opacity:1;stroke:none" />
    <path
       d="m 425.52676,423.57293 c 1.96043,-22.9734 29.21957,-28.96411 69.44799,-28.8201 41.99607,0.99813 64.57501,10.01645 66.16499,29.56544 -1.03902,23.36132 -41.7403,31.65019 -69.70052,31.80149 -24.59298,0.34562 -67.23669,-11.44607 -65.91246,-32.54683 z"
       id="path3002"
       style="fill:#1a1a1a;stroke:none" />
    <path
       d="m 558.37598,400.29234 c 11.45581,-14.35328 20.68435,-34.3889 6.06663,-48.53309 -16.70745,-14.42631 -38.35635,3.88433 -46.46087,18.133 z"
       id="path3008"
       style="fill:#e6e6e6;fill-opacity:1;stroke:none" />
    <path
       d="m 428.64113,400.29234 c -11.45581,-14.35328 -20.68435,-34.3889 -6.06663,-48.53309 16.70745,-14.42631 38.35635,3.88433 46.46087,18.133 z"
       id="path3010"
       style="fill:#e6e6e6;fill-opacity:1;stroke:none" />
    <path
       d="m 554.92711,387.80296 c 7.21201,-9.03608 13.02178,-18.61903 3.81923,-27.52342 -10.51815,-9.08212 -20.61161,-2.60544 -25.71384,6.36483 10.25641,4.98212 16.33028,12.89202 21.89461,21.15859 z"
       id="path3012"
       style="fill:#b3b3b3;fill-opacity:1;stroke:none" />
    <path
       d="m 430.37273,386.0857 c -7.21201,-9.03608 -13.02178,-18.61903 -3.81923,-27.52342 10.51815,-9.08212 20.61161,-2.60544 25.71384,6.36483 -10.25641,4.98212 -16.33028,12.89202 -21.89461,21.15859 z"
       id="path3014"
       style="fill:#b3b3b3;fill-opacity:1;stroke:none" />
    <path
       d="m 427.18997,425.0625 c 7.32222,18.61547 43.06588,25.42555 68.375,25.5625 14.7413,0.20717 35.9568,-3.93831 50.3125,-11.84375 -13.44801,9.27431 -36.75014,14.18879 -52.40625,13.96875 -25.61417,-0.13861 -62.39569,-7.42171 -66.28125,-27.6875 z"
       id="path3821"
       style="fill:#333333;stroke:none" />
    <path
       d="m 466.25625,520.183 c -11.6936,0 -21.13421,11.74777 -21.58386,18.39285 -0.90681,0.12975 -0.9338,3.53908 0.51059,4.5139 9.7908,3.51725 27.86111,2.03991 42.14652,0 1.45228,-0.19556 1.39044,-5.31949 0.60194,-5.61181 -1.09879,-6.00877 -9.98158,-17.29494 -21.67519,-17.29494 z"
       id="path3849"
       style="fill:#cfcfcf;fill-opacity:1;fill-rule:evenodd;stroke:none" />
    <path
       d="m 465.17815,521.16908 c -13.10774,0 -23.69002,12.77329 -24.19404,19.99848 -1.01646,0.14106 -1.04673,3.84801 0.57232,4.90793 10.97483,3.82428 31.23043,2.21797 47.24339,0 1.62791,-0.21264 1.5586,-5.78387 0.67472,-6.10171 -1.23166,-6.53329 -11.18866,-18.8047 -24.29639,-18.8047 z"
       id="path3842"
       style="fill:#e6e6e6;fill-opacity:1;fill-rule:evenodd;stroke:none" />
    <path
       d="m 517.49108,521.84461 c -11.6936,0 -21.13421,11.74777 -21.58386,18.39285 -0.90681,0.12975 -0.9338,3.53908 0.51059,4.5139 9.7908,3.51725 27.86111,2.03991 42.14652,0 1.45228,-0.19556 1.39044,-5.31949 0.60194,-5.61181 -1.09879,-6.00877 -9.98158,-17.29494 -21.67519,-17.29494 z"
       id="path3857"
       style="fill:#cfcfcf;fill-opacity:1;fill-rule:evenodd;stroke:none" />
    <path
       d="m 519.15302,522.91908 c -13.10774,0 -23.69002,12.77329 -24.19404,19.99848 -1.01646,0.14106 -1.04673,3.84801 0.57232,4.90793 10.97483,3.82428 31.23043,2.21797 47.24339,0 1.62791,-0.21264 1.5586,-5.78387 0.67472,-6.10171 -1.23166,-6.53329 -11.18866,-18.8047 -24.29639,-18.8047 z"
       id="path3859"
       style="fill:#e6e6e6;fill-opacity:1;fill-rule:evenodd;stroke:none" />
    <path
       d="m 443.60095,541.6854 c 7.31262,0.21091 27.90148,1.26818 44.35876,-1.01517"
       id="path3861"
       style="fill:#cfcfcf;fill-opacity:1;stroke:none" />
    <path
       d="m 494.15909,543.4354 c 7.31262,0.21091 27.90148,1.26818 44.35876,-1.01517"
       id="path3863"
       style="fill:#cfcfcf;fill-opacity:1;stroke:none" />
    <path
       d="m 484.01459,513.90039 a 15.202796,2.1213202 0 1 1 -30.40559,0 15.202796,2.1213202 0 1 1 30.40559,0 z"
       transform="matrix(1,0,0,0.2761974,49.1875,372.83744)"
       id="path3943"
       style="fill:#cfcfcf;fill-opacity:1;fill-rule:evenodd;stroke:none;filter:url(#filter3939)" />
    <path
       d="m 427.97059,392.53125 c -5.0586,12.05328 -7.30802,27.18956 -5.53125,45.6875 3.53048,41.25114 7.21875,67.375 7.21875,67.375 0.47832,3.04732 2.1163,4.5711 3.34375,4.5 l 0.90625,0 c -0.85683,-0.76562 -1.24204,-2.17068 -1.46875,-3.9375 0,0 -3.93989,-27.97178 -7.71875,-72.125 -1.55548,-16.19402 -0.24611,-29.95971 3.25,-41.5 z"
       id="path3947"
       style="fill:#cfcfcf;fill-opacity:1;stroke:none" />
    <path
       d="m 480.01021,468.8225 c 6.27351,1.07428 12.547,1.07473 18.8205,0.37642 -0.25491,7.15163 -2.74637,17.67454 -9.03384,17.69126 -7.08367,0.75282 -10.16139,-10.84738 -9.78666,-18.06768 z"
       id="path4238"
       style="fill:#1a1a1a;fill-opacity:1;stroke:none" />
    <path
       d="m 466.31639,383.12408 -31.22264,25.40582 7.78428,9.53787 31.17987,-25.40581 -7.74151,-9.53788 z"
       id="path4240"
       style="font-size:medium;font-style:normal;font-variant:normal;font-weight:normal;font-stretch:normal;text-indent:0;text-align:start;text-decoration:none;line-height:normal;letter-spacing:normal;word-spacing:normal;text-transform:none;direction:ltr;block-progression:tb;writing-mode:lr-tb;text-anchor:start;baseline-shift:baseline;color:#000000;fill:#2ad4ff;fill-opacity:1;stroke:none;stroke-width:9;marker:none;visibility:visible;display:inline;overflow:visible;filter:url(#filter4410);enable-background:accumulate;font-family:Sans;-inkscape-font-specification:Sans" />
    <path
       d="m 502.67152,384.23612 -6.33007,10.56437 34.51599,20.70104 6.33006,-10.56437 -34.51598,-20.70104 z"
       id="path4242"
       style="font-size:medium;font-style:normal;font-variant:normal;font-weight:normal;font-stretch:normal;text-indent:0;text-align:start;text-decoration:none;line-height:normal;letter-spacing:normal;word-spacing:normal;text-transform:none;direction:ltr;block-progression:tb;writing-mode:lr-tb;text-anchor:start;baseline-shift:baseline;color:#000000;fill:#2ad4ff;fill-opacity:1;stroke:none;stroke-width:9;marker:none;visibility:visible;display:inline;overflow:visible;filter:url(#filter4406);enable-background:accumulate;font-family:Sans;-inkscape-font-specification:Sans" />
    <path
       d="m 177.4838,1230.288 a 7.0710678,6.4523492 0 1 1 -14.14213,0 7.0710678,6.4523492 0 1 1 14.14213,0 z"
       transform="matrix(1.3686636,0,0,1.3686636,232.59717,-1264.6185)"
       id="path4244"
       style="fill:#2ad4ff;fill-opacity:1;fill-rule:evenodd;stroke:none;filter:url(#filter4414)" />
    <path
       d="m 177.4838,1230.288 a 7.0710678,6.4523492 0 1 1 -14.14213,0 7.0710678,6.4523492 0 1 1 14.14213,0 z"
       transform="matrix(1.3686636,0,0,1.3686636,272.27662,-1263.8926)"
       id="path4246"
       style="fill:#2ad4ff;fill-opacity:1;fill-rule:evenodd;stroke:none;filter:url(#filter4402)" />
    <path
       d="m 605.9375,417.5 c -1.18269,0.0735 -2.33962,0.21408 -3.46875,0.46875 -9.03304,2.03736 -14.0838,9.43708 -18.125,16.34375 -4.0412,6.90667 -7.57027,13.97429 -12.15625,18.3125 -4.58598,4.33821 -9.73381,6.70718 -20.28125,4.53125 a 5.3940697,5.3940697 0 1 0 -2.15625,10.5625 c 13.17142,2.71726 23.2147,-1.01036 29.84375,-7.28125 6.62905,-6.27089 10.35598,-14.35282 14.0625,-20.6875 3.70652,-6.33468 6.90362,-10.28379 11.1875,-11.25 4.28388,-0.96621 12.05024,0.68244 25.46875,10.34375 a 5.3946769,5.3946769 0 1 0 6.3125,-8.75 C 623.93389,420.95616 614.21634,416.98525 605.9375,417.5 z"
       id="path4296"
       style="font-size:medium;font-style:normal;font-variant:normal;font-weight:normal;font-stretch:normal;text-indent:0;text-align:start;text-decoration:none;line-height:normal;letter-spacing:normal;word-spacing:normal;text-transform:none;direction:ltr;block-progression:tb;writing-mode:lr-tb;text-anchor:start;baseline-shift:baseline;color:#000000;fill:#e6e6e6;fill-opacity:1;stroke:none;stroke-width:10.78706074;marker:none;visibility:visible;display:inline;overflow:visible;enable-background:accumulate;font-family:Sans;-inkscape-font-specification:Sans" />
    <path
       d="m 466.31639,383.12408 -31.22264,25.40582 7.78428,9.53787 31.17987,-25.40581 -7.74151,-9.53788 z"
       id="path4418"
       style="font-size:medium;font-style:normal;font-variant:normal;font-weight:normal;font-stretch:normal;text-indent:0;text-align:start;text-decoration:none;line-height:normal;letter-spacing:normal;word-spacing:normal;text-transform:none;direction:ltr;block-progression:tb;writing-mode:lr-tb;text-anchor:start;baseline-shift:baseline;color:#000000;fill:#2ad4ff;fill-opacity:1;stroke:none;stroke-width:9;marker:none;visibility:visible;display:inline;overflow:visible;enable-background:accumulate;font-family:Sans;-inkscape-font-specification:Sans" />
    <path
       d="m 502.67152,384.23612 -6.33007,10.56437 34.51599,20.70104 6.33006,-10.56437 -34.51598,-20.70104 z"
       id="path4420"
       style="font-size:medium;font-style:normal;font-variant:normal;font-weight:normal;font-stretch:normal;text-indent:0;text-align:start;text-decoration:none;line-height:normal;letter-spacing:normal;word-spacing:normal;text-transform:none;direction:ltr;block-progression:tb;writing-mode:lr-tb;text-anchor:start;baseline-shift:baseline;color:#000000;fill:#2ad4ff;fill-opacity:1;stroke:none;stroke-width:9;marker:none;visibility:visible;display:inline;overflow:visible;enable-background:accumulate;font-family:Sans;-inkscape-font-specification:Sans" />
    <path
       d="m 177.4838,1230.288 a 7.0710678,6.4523492 0 1 1 -14.14213,0 7.0710678,6.4523492 0 1 1 14.14213,0 z"
       transform="matrix(1.3686636,0,0,1.3686636,232.59717,-1264.6185)"
       id="path4422"
       style="fill:#2ad4ff;fill-opacity:1;fill-rule:evenodd;stroke:none" />
    <path
       d="m 177.4838,1230.288 a 7.0710678,6.4523492 0 1 1 -14.14213,0 7.0710678,6.4523492 0 1 1 14.14213,0 z"
       transform="matrix(1.3686636,0,0,1.3686636,272.27662,-1263.8926)"
       id="path4424"
       style="fill:#2ad4ff;fill-opacity:1;fill-rule:evenodd;stroke:none" />
  </g>
  <g
     transform="translate(-52.845669,-275.64522)"
     id="text4426"
     style="font-size:30.38140106px;font-style:normal;font-variant:normal;font-weight:normal;font-stretch:normal;text-align:start;line-height:125%;letter-spacing:0px;word-spacing:0px;writing-mode:lr-tb;text-anchor:start;fill:#e6e6e6;fill-opacity:1;stroke:none;font-family:Keifont;-inkscape-font-specification:Keifont">
    <path
       d="m 233.02981,707.073 0,-18.0983 -6.11188,0 0,-4.50974 17.68292,0 0,4.50974 -6.14155,0 0,18.0983 -5.42949,0"
       id="path4627" />
    <path
       d="m 247.68646,707.073 0,-24.26952 5.37015,0 0,5.81519 -0.23735,3.08561 c 1.68125,-1.56257 3.44163,-2.34386 5.28114,-2.34388 3.58008,2e-5 5.37013,2.3439 5.37015,7.03164 l 0,10.68096 -5.39982,0 0,-10.02824 c -1e-5,-1.1472 -0.15825,-1.93838 -0.47471,-2.37354 -0.31648,-0.45492 -0.83075,-0.68239 -1.5428,-0.6824 -0.57362,10e-6 -1.06811,0.11869 -1.48347,0.35603 -0.41538,0.23737 -0.91976,0.63296 -1.51314,1.18678 l 0,11.54137 -5.37015,0"
       id="path4629" />
    <path
       d="m 275.48663,707.48837 c -2.55157,0 -4.65809,-0.81096 -6.31956,-2.43289 -1.64171,-1.62192 -2.46256,-3.82734 -2.46256,-6.61626 0,-2.69001 0.81096,-4.87565 2.43289,-6.55692 1.64169,-1.68125 3.56031,-2.52188 5.75585,-2.5219 2.39331,2e-5 4.22292,0.77142 5.48882,2.31421 1.28566,1.54282 1.92849,3.56033 1.92851,6.05255 -2e-5,1.00876 -0.0791,1.77027 -0.23735,2.28454 l -10.14692,0 c 0.45493,2.23509 1.88894,3.35263 4.30206,3.35263 1.20654,0 2.42298,-0.36592 3.64933,-1.09776 l 1.80983,3.26362 c -1.81974,1.30545 -3.8867,1.95818 -6.2009,1.95818 m -3.64932,-10.97766 5.90419,0 c -10e-6,-2.0175 -0.90987,-3.02625 -2.72958,-3.02627 -0.79119,2e-5 -1.47358,0.25715 -2.04718,0.7714 -0.57361,0.51429 -0.94942,1.26591 -1.12743,2.25487"
       id="path4631" />
    <path
       d="m 297.88698,707.48837 c -1.12744,0 -2.30432,-0.21758 -3.53065,-0.65273 -1.20656,-0.45493 -2.24498,-1.04831 -3.11528,-1.78016 l 2.37355,-3.35263 c 1.56258,1.20656 3.02626,1.80983 4.39106,1.80983 1.36478,0 2.04717,-0.45493 2.04718,-1.36479 -1e-5,-0.13845 -0.0297,-0.26702 -0.089,-0.3857 -0.0593,-0.13845 -0.15824,-0.26702 -0.29669,-0.3857 -0.13847,-0.11868 -0.27692,-0.21757 -0.41537,-0.2967 -0.11869,-0.0989 -0.30659,-0.19779 -0.56372,-0.29669 -0.23736,-0.11867 -0.44505,-0.20768 -0.62305,-0.26703 -0.15825,-0.0791 -0.3956,-0.178 -0.71207,-0.29669 -0.31648,-0.11867 -0.56372,-0.21757 -0.74173,-0.29669 -3.0065,-1.20655 -4.50974,-2.8977 -4.50974,-5.07346 0,-1.64169 0.61316,-2.96692 1.8395,-3.97569 1.24611,-1.00874 2.86803,-1.51312 4.86577,-1.51314 2.1164,2e-5 4.17347,0.74175 6.17122,2.2252 l -2.40322,3.20429 c -1.3648,-0.96918 -2.56146,-1.45378 -3.58998,-1.45379 -1.22634,10e-6 -1.83951,0.41538 -1.8395,1.24611 -1e-5,0.13847 0.0297,0.27692 0.089,0.41537 0.0593,0.11869 0.14834,0.23736 0.26703,0.35603 0.13845,0.0989 0.26702,0.18792 0.3857,0.26702 0.13845,0.0791 0.32635,0.16814 0.56372,0.26703 0.25712,0.0989 0.46481,0.18791 0.62305,0.26702 0.15823,0.0593 0.39559,0.14836 0.71207,0.26703 0.31646,0.0989 0.5637,0.17802 0.74173,0.23735 0.63294,0.23737 1.17687,0.48461 1.63181,0.74173 0.4747,0.25715 0.94941,0.58351 1.42413,0.97909 0.4747,0.3956 0.84062,0.89009 1.09777,1.48347 0.25712,0.59339 0.38568,1.25601 0.3857,1.98784 -2e-5,1.66149 -0.62307,3.01639 -1.86917,4.0647 -1.24612,1.04832 -3.01639,1.57248 -5.31081,1.57248"
       id="path4633" />
    <path
       d="m 315.83693,707.48837 c -2.51201,0 -4.57897,-0.81096 -6.20089,-2.43289 -1.60215,-1.62192 -2.40322,-3.82734 -2.40322,-6.61626 0,-2.76913 0.88019,-4.97454 2.64057,-6.61626 1.76038,-1.64169 3.90646,-2.46254 6.43825,-2.46256 1.93838,2e-5 3.61965,0.61319 5.04379,1.8395 l -2.5219,3.47132 c -0.75163,-0.63294 -1.49336,-0.94941 -2.2252,-0.94942 -1.18678,10e-6 -2.12631,0.42527 -2.81858,1.27578 -0.6923,0.85053 -1.03844,1.99774 -1.03843,3.44164 -1e-5,1.40436 0.33625,2.54168 1.00876,3.41197 0.69227,0.85053 1.58235,1.27579 2.67024,1.27579 1.00874,0 2.0175,-0.40548 3.02627,-1.21645 l 2.04718,3.56032 c -1.50326,1.34501 -3.3922,2.01752 -5.66684,2.01752"
       id="path4635" />
    <path
       d="m 324.53005,707.073 0,-17.29723 4.39106,0 0.35603,3.02628 0.14835,0 c 0.61316,-1.10764 1.35489,-1.95816 2.2252,-2.55157 0.89007,-0.59337 1.78015,-0.89006 2.67024,-0.89008 0.87029,2e-5 1.57246,0.1187 2.10652,0.35604 l -0.91975,4.65808 c -0.71207,-0.178 -1.33513,-0.26701 -1.86916,-0.26702 -0.71208,1e-5 -1.40436,0.24725 -2.07686,0.74173 -0.67251,0.4945 -1.22634,1.27579 -1.66148,2.34388 l 0,9.87989 -5.37015,0"
       id="path4637" />
    <path
       d="m 346.45569,707.48837 c -2.55157,0 -4.65809,-0.81096 -6.31957,-2.43289 -1.6417,-1.62192 -2.46256,-3.82734 -2.46255,-6.61626 -10e-6,-2.69001 0.81096,-4.87565 2.43288,-6.55692 1.6417,-1.68125 3.56031,-2.52188 5.75585,-2.5219 2.39332,2e-5 4.22292,0.77142 5.48883,2.31421 1.28566,1.54282 1.92849,3.56033 1.92851,6.05255 -2e-5,1.00876 -0.0791,1.77027 -0.23736,2.28454 l -10.14691,0 c 0.45492,2.23509 1.88894,3.35263 4.30205,3.35263 1.20654,0 2.42299,-0.36592 3.64933,-1.09776 l 1.80983,3.26362 c -1.81973,1.30545 -3.88669,1.95818 -6.20089,1.95818 m -3.64933,-10.97766 5.9042,0 c -10e-6,-2.0175 -0.90987,-3.02625 -2.72958,-3.02627 -0.79119,2e-5 -1.47359,0.25715 -2.04718,0.7714 -0.57362,0.51429 -0.94943,1.26591 -1.12744,2.25487"
       id="path4639" />
    <path
       d="m 364.55399,707.48837 c -2.55157,0 -4.65809,-0.81096 -6.31957,-2.43289 -1.64171,-1.62192 -2.46256,-3.82734 -2.46256,-6.61626 0,-2.69001 0.81096,-4.87565 2.43289,-6.55692 1.6417,-1.68125 3.56031,-2.52188 5.75585,-2.5219 2.39331,2e-5 4.22292,0.77142 5.48883,2.31421 1.28565,1.54282 1.92849,3.56033 1.9285,6.05255 -10e-6,1.00876 -0.0791,1.77027 -0.23735,2.28454 l -10.14691,0 c 0.45492,2.23509 1.88894,3.35263 4.30205,3.35263 1.20654,0 2.42298,-0.36592 3.64933,-1.09776 l 1.80983,3.26362 c -1.81974,1.30545 -3.8867,1.95818 -6.20089,1.95818 m -3.64933,-10.97766 5.9042,0 c -2e-5,-2.0175 -0.90987,-3.02625 -2.72958,-3.02627 -0.79119,2e-5 -1.47359,0.25715 -2.04719,0.7714 -0.57361,0.51429 -0.94942,1.26591 -1.12743,2.25487"
       id="path4641" />
    <path
       d="m 374.84925,707.073 0,-17.29723 4.39106,0 0.35603,2.16587 0.14835,0 c 1.76037,-1.72081 3.59987,-2.58122 5.5185,-2.58124 3.58008,2e-5 5.37013,2.3439 5.37015,7.03164 l 0,10.68096 -5.39982,0 0,-10.02824 c -2e-5,-1.1472 -0.15825,-1.93838 -0.47471,-2.37354 -0.31649,-0.45492 -0.83076,-0.68239 -1.54281,-0.6824 -0.57362,10e-6 -1.0681,0.11869 -1.48347,0.35603 -0.41538,0.23737 -0.91975,0.63296 -1.51313,1.18678 l 0,11.54137 -5.37015,0"
       id="path4643" />
    <path
       d="m 400.00884,707.48837 c -1.12744,0 -2.30432,-0.21758 -3.53065,-0.65273 -1.20655,-0.45493 -2.24498,-1.04831 -3.11528,-1.78016 l 2.37355,-3.35263 c 1.56258,1.20656 3.02627,1.80983 4.39106,1.80983 1.36478,0 2.04718,-0.45493 2.04719,-1.36479 -1e-5,-0.13845 -0.0297,-0.26702 -0.089,-0.3857 -0.0593,-0.13845 -0.15825,-0.26702 -0.2967,-0.3857 -0.13846,-0.11868 -0.27692,-0.21757 -0.41537,-0.2967 -0.11868,-0.0989 -0.30659,-0.19779 -0.56371,-0.29669 -0.23737,-0.11867 -0.44505,-0.20768 -0.62306,-0.26703 -0.15824,-0.0791 -0.3956,-0.178 -0.71206,-0.29669 -0.31648,-0.11867 -0.56373,-0.21757 -0.74174,-0.29669 -3.00649,-1.20655 -4.50974,-2.8977 -4.50974,-5.07346 0,-1.64169 0.61317,-2.96692 1.8395,-3.97569 1.24611,-1.00874 2.86803,-1.51312 4.86577,-1.51314 2.11641,2e-5 4.17348,0.74175 6.17123,2.2252 l -2.40322,3.20429 c -1.3648,-0.96918 -2.56146,-1.45378 -3.58999,-1.45379 -1.22634,10e-6 -1.83951,0.41538 -1.8395,1.24611 -10e-6,0.13847 0.0297,0.27692 0.089,0.41537 0.0593,0.11869 0.14834,0.23736 0.26702,0.35603 0.13845,0.0989 0.26702,0.18792 0.3857,0.26702 0.13845,0.0791 0.32636,0.16814 0.56372,0.26703 0.25713,0.0989 0.46481,0.18791 0.62306,0.26702 0.15823,0.0593 0.39558,0.14836 0.71206,0.26703 0.31646,0.0989 0.56371,0.17802 0.74173,0.23735 0.63294,0.23737 1.17688,0.48461 1.63182,0.74173 0.4747,0.25715 0.9494,0.58351 1.42413,0.97909 0.47469,0.3956 0.84061,0.89009 1.09776,1.48347 0.25712,0.59339 0.38569,1.25601 0.3857,1.98784 -1e-5,1.66149 -0.62307,3.01639 -1.86916,4.0647 -1.24613,1.04832 -3.0164,1.57248 -5.31082,1.57248"
       id="path4645" />
    <path
       d="m 410.33378,707.073 0,-24.26952 5.37015,0 0,5.81519 -0.23736,3.08561 c 1.68125,-1.56257 3.44163,-2.34386 5.28114,-2.34388 3.58009,2e-5 5.37013,2.3439 5.37015,7.03164 l 0,10.68096 -5.39982,0 0,-10.02824 c -10e-6,-1.1472 -0.15825,-1.93838 -0.47471,-2.37354 -0.31648,-0.45492 -0.83075,-0.68239 -1.5428,-0.6824 -0.57362,10e-6 -1.06811,0.11869 -1.48347,0.35603 -0.41538,0.23737 -0.91976,0.63296 -1.51313,1.18678 l 0,11.54137 -5.37015,0"
       id="path4647" />
    <path
       d="m 437.83725,707.48837 c -2.31422,0 -4.31195,-0.82085 -5.99321,-2.46256 -1.66148,-1.6417 -2.49222,-3.83722 -2.49222,-6.58659 0,-2.74935 0.83074,-4.94487 2.49222,-6.58659 1.68126,-1.66147 3.67899,-2.49221 5.99321,-2.49223 2.29442,2e-5 4.27237,0.83076 5.93387,2.49223 1.66146,1.64172 2.4922,3.83724 2.49222,6.58659 -2e-5,2.74937 -0.83076,4.94489 -2.49222,6.58659 -1.6615,1.64171 -3.63945,2.46256 -5.93387,2.46256 m 0,-4.36139 c 1.93838,0 2.90758,-1.56258 2.90759,-4.68776 -1e-5,-3.14494 -0.96921,-4.71741 -2.90759,-4.71742 -1.97796,10e-6 -2.96694,1.57248 -2.96693,4.71742 -10e-6,3.12518 0.98897,4.68776 2.96693,4.68776"
       id="path4649" />
    <path
       d="m 456.46959,707.48837 c -2.07686,0 -3.61966,-0.60328 -4.62842,-1.80983 -0.98898,-1.20655 -1.48347,-2.87792 -1.48346,-5.01412 l 0,-6.64593 -2.34388,0 0,-4.00536 2.67024,-0.23736 0.59339,-4.5394 4.50974,0 0,4.5394 4.0647,0 0,4.24272 -4.0647,0 0,6.58659 c -10e-6,1.78017 0.72194,2.67025 2.16586,2.67024 0.3758,1e-5 0.90985,-0.0989 1.60214,-0.29669 l 0.83074,3.88668 c -1.42414,0.41537 -2.72959,0.62306 -3.91635,0.62306"
       id="path4651" />
    <path
       d="m 473.05476,707.073 -4.24272,-17.29723 5.34048,0 1.54281,7.7437 c 0.0989,0.57362 0.22745,1.44392 0.3857,2.6109 0.15823,1.167 0.2769,2.02741 0.35603,2.58124 l 0.14835,0 c 0.43514,-2.49222 0.77139,-4.22293 1.00875,-5.19214 l 1.7505,-7.7437 4.68775,0 1.8395,7.7437 c 0.15822,0.67252 0.3659,1.67138 0.62306,2.9966 0.25711,1.32524 0.40546,2.05708 0.44504,2.19554 l 0.14834,0 c 0.0395,-0.29669 0.14833,-1.0681 0.32636,-2.31421 0.178,-1.26589 0.32635,-2.22519 0.44504,-2.87793 l 1.48347,-7.7437 5.01412,0 -4.0647,17.29723 -6.31957,0 -1.48347,-6.58659 c -0.25714,-1.26589 -0.55384,-2.95704 -0.89008,-5.07346 l -0.14834,0 c -0.23737,1.72083 -0.51428,3.41198 -0.83074,5.07346 l -1.39446,6.58659 -6.17122,0"
       id="path4653" />
    <path
       d="m 505.18663,707.48837 c -2.55157,0 -4.65809,-0.81096 -6.31957,-2.43289 -1.6417,-1.62192 -2.46255,-3.82734 -2.46255,-6.61626 0,-2.69001 0.81096,-4.87565 2.43288,-6.55692 1.6417,-1.68125 3.56032,-2.52188 5.75585,-2.5219 2.39332,2e-5 4.22293,0.77142 5.48883,2.31421 1.28566,1.54282 1.92849,3.56033 1.92851,6.05255 -2e-5,1.00876 -0.0791,1.77027 -0.23736,2.28454 l -10.14691,0 c 0.45492,2.23509 1.88894,3.35263 4.30205,3.35263 1.20655,0 2.42299,-0.36592 3.64933,-1.09776 l 1.80983,3.26362 c -1.81973,1.30545 -3.88669,1.95818 -6.20089,1.95818 m -3.64933,-10.97766 5.9042,0 c -1e-5,-2.0175 -0.90987,-3.02625 -2.72958,-3.02627 -0.79119,2e-5 -1.47358,0.25715 -2.04718,0.7714 -0.57362,0.51429 -0.94943,1.26591 -1.12744,2.25487"
       id="path4655" />
    <path
       d="m 515.48189,707.073 0,-17.29723 4.39106,0 0.35604,2.16587 0.14834,0 c 1.76038,-1.72081 3.59987,-2.58122 5.5185,-2.58124 3.58008,2e-5 5.37013,2.3439 5.37015,7.03164 l 0,10.68096 -5.39982,0 0,-10.02824 c -1e-5,-1.1472 -0.15825,-1.93838 -0.47471,-2.37354 -0.31648,-0.45492 -0.83075,-0.68239 -1.5428,-0.6824 -0.57362,10e-6 -1.06811,0.11869 -1.48347,0.35603 -0.41538,0.23737 -0.91976,0.63296 -1.51314,1.18678 l 0,11.54137 -5.37015,0"
       id="path4657" />
    <path
       d="m 542.2733,707.48837 c -2.07686,0 -3.61966,-0.60328 -4.62841,-1.80983 -0.98899,-1.20655 -1.48347,-2.87792 -1.48347,-5.01412 l 0,-6.64593 -2.34388,0 0,-4.00536 2.67024,-0.23736 0.59339,-4.5394 4.50974,0 0,4.5394 4.0647,0 0,4.24272 -4.0647,0 0,6.58659 c -10e-6,1.78017 0.72194,2.67025 2.16586,2.67024 0.3758,1e-5 0.90985,-0.0989 1.60214,-0.29669 l 0.83074,3.88668 c -1.42414,0.41537 -2.72958,0.62306 -3.91635,0.62306"
       id="path4659" />
    <path
       d="m 562.74516,707.48837 c -2.07686,0 -3.61966,-0.60328 -4.62841,-1.80983 -0.98898,-1.20655 -1.48347,-2.87792 -1.48347,-5.01412 l 0,-6.64593 -2.34388,0 0,-4.00536 2.67024,-0.23736 0.59339,-4.5394 4.50974,0 0,4.5394 4.0647,0 0,4.24272 -4.0647,0 0,6.58659 c -10e-6,1.78017 0.72195,2.67025 2.16586,2.67024 0.3758,1e-5 0.90985,-0.0989 1.60215,-0.29669 l 0.83074,3.88668 c -1.42414,0.41537 -2.72959,0.62306 -3.91636,0.62306"
       id="path4661" />
    <path
       d="m 577.28313,707.48837 c -2.55157,0 -4.65809,-0.81096 -6.31957,-2.43289 -1.64171,-1.62192 -2.46256,-3.82734 -2.46256,-6.61626 0,-2.69001 0.81096,-4.87565 2.43289,-6.55692 1.6417,-1.68125 3.56031,-2.52188 5.75585,-2.5219 2.39332,2e-5 4.22292,0.77142 5.48883,2.31421 1.28565,1.54282 1.92849,3.56033 1.92851,6.05255 -2e-5,1.00876 -0.0791,1.77027 -0.23736,2.28454 l -10.14691,0 c 0.45492,2.23509 1.88894,3.35263 4.30205,3.35263 1.20654,0 2.42298,-0.36592 3.64933,-1.09776 l 1.80983,3.26362 c -1.81973,1.30545 -3.8867,1.95818 -6.20089,1.95818 m -3.64933,-10.97766 5.9042,0 c -10e-6,-2.0175 -0.90987,-3.02625 -2.72958,-3.02627 -0.79119,2e-5 -1.47359,0.25715 -2.04719,0.7714 -0.57361,0.51429 -0.94942,1.26591 -1.12743,2.25487"
       id="path4663" />
    <path
       d="m 587.57839,707.073 0,-17.29723 4.39106,0 0.35603,3.02628 0.14835,0 c 0.61316,-1.10764 1.35489,-1.95816 2.2252,-2.55157 0.89007,-0.59337 1.78015,-0.89006 2.67024,-0.89008 0.87029,2e-5 1.57246,0.1187 2.10652,0.35604 l -0.91975,4.65808 c -0.71207,-0.178 -1.33513,-0.26701 -1.86916,-0.26702 -0.71208,1e-5 -1.40436,0.24725 -2.07686,0.74173 -0.67251,0.4945 -1.22634,1.27579 -1.66148,2.34388 l 0,9.87989 -5.37015,0"
       id="path4665" />
    <path
       d="m 601.70101,707.073 0,-17.29723 4.39106,0 0.35603,3.02628 0.14835,0 c 0.61316,-1.10764 1.35489,-1.95816 2.2252,-2.55157 0.89007,-0.59337 1.78015,-0.89006 2.67024,-0.89008 0.87029,2e-5 1.57246,0.1187 2.10652,0.35604 l -0.91975,4.65808 c -0.71207,-0.178 -1.33513,-0.26701 -1.86916,-0.26702 -0.71208,1e-5 -1.40436,0.24725 -2.07686,0.74173 -0.67251,0.4945 -1.22634,1.27579 -1.66148,2.34388 l 0,9.87989 -5.37015,0"
       id="path4667" />
    <path
       d="m 615.8236,707.073 0,-17.29723 5.37015,0 0,17.29723 -5.37015,0 m 2.69991,-19.70044 c -0.90987,2e-5 -1.66149,-0.25712 -2.25487,-0.7714 -0.57361,-0.51425 -0.86041,-1.17687 -0.86041,-1.98785 0,-0.81094 0.2868,-1.47355 0.86041,-1.98785 0.59338,-0.53402 1.345,-0.80104 2.25487,-0.80107 0.89007,3e-5 1.62191,0.26705 2.19553,0.80107 0.5736,0.5143 0.8604,1.17691 0.86041,1.98785 -10e-6,0.81098 -0.28681,1.4736 -0.86041,1.98785 -0.57362,0.51428 -1.30546,0.77142 -2.19553,0.7714"
       id="path4669" />
    <path
       d="m 634.7823,707.48837 c -1.62193,0 -3.11529,-0.75162 -4.48007,-2.25487 l -0.11868,0 -0.41537,1.8395 -4.21305,0 0,-24.26952 5.37015,0 0,5.81519 -0.11867,2.58123 c 1.345,-1.22631 2.82846,-1.83948 4.4504,-1.8395 2.05706,2e-5 3.69876,0.80109 4.92511,2.40322 1.24609,1.58238 1.86915,3.69879 1.86917,6.34924 -2e-5,2.86804 -0.72198,5.15258 -2.16587,6.85362 -1.42414,1.68126 -3.12518,2.52189 -5.10312,2.52189 m -1.27578,-4.42073 c 0.89007,0 1.60213,-0.39559 2.13619,-1.18678 0.55381,-0.79117 0.83073,-2.00761 0.83074,-3.64932 -10e-6,-2.98671 -0.92965,-4.48006 -2.78892,-4.48007 -0.90987,10e-6 -1.82961,0.4945 -2.75925,1.48346 l 0,6.82395 c 0.75162,0.67251 1.61203,1.00876 2.58124,1.00876"
       id="path4671" />
    <path
       d="m 650.47738,707.48837 c -1.76039,0 -3.02628,-0.51427 -3.79768,-1.54281 -0.75162,-1.04831 -1.12744,-2.54167 -1.12743,-4.48007 l 0,-18.66201 5.37015,0 0,18.8697 c -10e-6,0.51427 0.0989,0.89008 0.29669,1.12743 0.19779,0.21758 0.42525,0.32637 0.68239,0.32637 0.19779,0 0.39559,-0.0198 0.59339,-0.0593 l 0.65273,3.97569 c -0.71208,0.29669 -1.60216,0.44504 -2.67024,0.44504"
       id="path4673" />
    <path
       d="m 657.77604,713.71893 c -0.92964,-10e-6 -1.78016,-0.10879 -2.55156,-0.32636 l 0.97909,-4.09437 c 0.69228,0.13845 1.07798,0.20768 1.1571,0.20768 1.48346,0 2.44277,-0.69228 2.87793,-2.07685 l 0.26702,-0.86041 -6.64593,-16.79285 5.45916,0 2.28454,7.17998 c 0.2769,0.89009 0.73183,2.52191 1.36479,4.89544 l 0.14834,0 c 0.11867,-0.55382 0.49448,-2.18563 1.12744,-4.89544 l 1.98784,-7.17998 5.1328,0 -5.93387,17.3269 c -0.89009,2.33398 -1.89884,4.01524 -3.02627,5.04378 -1.12744,1.04832 -2.67025,1.57247 -4.62842,1.57248"
       id="path4675" />
    <path
       d="m 690.14527,707.48837 c -1.62193,0 -3.11528,-0.75162 -4.48007,-2.25487 l -0.11867,0 -0.41537,1.8395 -4.21305,0 0,-24.26952 5.37015,0 0,5.81519 -0.11868,2.58123 c 1.345,-1.22631 2.82847,-1.83948 4.4504,-1.8395 2.05706,2e-5 3.69877,0.80109 4.92511,2.40322 1.2461,1.58238 1.86915,3.69879 1.86917,6.34924 -2e-5,2.86804 -0.72197,5.15258 -2.16586,6.85362 -1.42414,1.68126 -3.12518,2.52189 -5.10313,2.52189 m -1.27578,-4.42073 c 0.89007,0 1.60214,-0.39559 2.1362,-1.18678 0.55381,-0.79117 0.83072,-2.00761 0.83074,-3.64932 -2e-5,-2.98671 -0.92965,-4.48006 -2.78892,-4.48007 -0.90987,10e-6 -1.82962,0.4945 -2.75925,1.48346 l 0,6.82395 c 0.75162,0.67251 1.61203,1.00876 2.58123,1.00876"
       id="path4677" />
    <path
       d="m 705.27667,707.48837 c -1.56259,0 -2.80871,-0.50438 -3.73834,-1.51314 -0.92964,-1.00875 -1.39446,-2.25486 -1.39446,-3.73833 0,-1.8395 0.76151,-3.26362 2.28454,-4.27239 1.52302,-1.00875 3.96579,-1.70103 7.32833,-2.07685 -0.11869,-1.48346 -0.98899,-2.22519 -2.61091,-2.2252 -1.22634,10e-6 -2.73947,0.51428 -4.53941,1.5428 l -1.86916,-3.56032 c 2.55156,-1.52301 5.024,-2.28452 7.41733,-2.28454 4.66796,2e-5 7.00195,2.6307 7.00196,7.89205 l 0,9.82055 -4.39106,0 -0.41537,-1.72082 -0.11868,0 c -1.58237,1.42412 -3.23396,2.13619 -4.95477,2.13619 m 1.86916,-4.18338 c 0.89007,10e-6 1.76037,-0.45492 2.61091,-1.36479 l 0,-2.75925 c -2.98673,0.3956 -4.48008,1.27579 -4.48007,2.64058 -10e-6,0.98898 0.62304,1.48347 1.86916,1.48346"
       id="path4679" />
    <path
       d="m 725.51112,707.48837 c -2.15598,0 -3.8768,-0.81096 -5.16246,-2.43289 -1.28568,-1.62192 -1.92851,-3.82734 -1.92851,-6.61626 0,-2.70979 0.71206,-4.89543 2.13619,-6.55692 1.44391,-1.68125 3.11528,-2.52188 5.01412,-2.5219 0.90985,2e-5 1.67136,0.14837 2.28454,0.44504 0.63293,0.29671 1.25599,0.74175 1.86917,1.33512 l -0.20769,-2.58123 0,-5.75585 5.42949,0 0,24.26952 -4.39106,0 -0.41537,-1.66148 -0.11868,0 c -1.38458,1.38456 -2.88782,2.07685 -4.50974,2.07685 m 1.42413,-4.42073 c 1.08787,0 1.94828,-0.4846 2.58123,-1.4538 l 0,-6.82395 c -0.75163,-0.69227 -1.64171,-1.03841 -2.67024,-1.03842 -0.81097,10e-6 -1.49336,0.3956 -2.04718,1.18677 -0.55384,0.77141 -0.83075,1.90874 -0.83074,3.41197 -10e-6,3.14496 0.98897,4.71743 2.96693,4.71743"
       id="path4681" />
    <path
       d="m 742.45234,707.48837 c -0.92964,0 -1.70104,-0.31647 -2.31421,-0.94942 -0.59338,-0.65272 -0.89008,-1.4538 -0.89008,-2.40322 0,-0.92963 0.2967,-1.72081 0.89008,-2.37354 0.61317,-0.65272 1.38457,-0.97909 2.31421,-0.97909 0.90986,0 1.67137,0.32637 2.28454,0.97909 0.63294,0.65273 0.94941,1.44391 0.94942,2.37354 -10e-6,0.92964 -0.31648,1.72083 -0.94942,2.37355 -0.61317,0.65273 -1.37468,0.97909 -2.28454,0.97909"
       id="path4683" />
  </g>
  <g
     transform="matrix(1.251427,0,0,1.251427,-175.11517,-451.27427)"
     id="text4579"
     style="font-size:17.30110931px;font-style:normal;font-variant:normal;font-weight:normal;font-stretch:normal;text-align:start;line-height:125%;letter-spacing:0px;word-spacing:0px;writing-mode:lr-tb;text-anchor:start;fill:#404040;fill-opacity:1;stroke:none;font-family:Keifont;-inkscape-font-specification:Keifont">
    <path
       d="m 394.1619,741.03101 0,-10.30633 -3.4805,0 0,-2.56813 10.06978,0 0,2.56813 -3.49739,0 0,10.30633 -3.09189,0"
       id="path4584" />
    <path
       d="m 402.50833,741.03101 0,-9.85015 2.50055,0 0.20275,1.72336 0.0845,0 c 0.34918,-0.63077 0.77157,-1.11511 1.26718,-1.45303 0.50686,-0.3379 1.01373,-0.50686 1.5206,-0.50687 0.4956,1e-5 0.89546,0.0676 1.19959,0.20275 l -0.52376,2.65261 c -0.40551,-0.10136 -0.76031,-0.15205 -1.06443,-0.15206 -0.4055,1e-5 -0.79973,0.14081 -1.18269,0.42239 -0.38297,0.2816 -0.69836,0.72652 -0.94616,1.33476 l 0,5.62624 -3.0581,0"
       id="path4586" />
    <path
       d="m 411.76713,744.81562 c -0.5294,0 -1.01374,-0.0619 -1.45303,-0.18585 l 0.55756,-2.33159 c 0.39423,0.0788 0.61387,0.11826 0.65893,0.11827 0.84477,-1e-5 1.39107,-0.39424 1.63887,-1.1827 l 0.15206,-0.48997 -3.78462,-9.56292 3.1088,0 1.30096,4.08874 c 0.15769,0.50687 0.41675,1.43613 0.7772,2.78778 l 0.0845,0 c 0.0676,-0.31538 0.28158,-1.24464 0.64203,-2.78778 l 1.13201,-4.08874 2.92294,0 -3.37913,9.86704 c -0.50687,1.32912 -1.08132,2.28654 -1.72335,2.87226 -0.64204,0.59697 -1.52061,0.89546 -2.63571,0.89546"
       id="path4588" />
    <path
       d="m 428.47689,741.26754 c -1.22775,0 -2.2077,-0.46181 -2.93984,-1.38544 -0.73214,-0.92362 -1.09821,-2.17953 -1.09821,-3.76772 0,-1.54312 0.40549,-2.78777 1.21648,-3.73393 0.82225,-0.95741 1.77404,-1.43612 2.85536,-1.43613 0.51813,1e-5 0.95178,0.0845 1.30096,0.25344 0.36044,0.16896 0.71524,0.4224 1.06443,0.7603 l -0.11827,-1.46992 0,-3.27775 3.0919,0 0,13.82062 -2.50056,0 -0.23653,-0.94616 -0.0676,0 c -0.78847,0.78846 -1.64451,1.18269 -2.56813,1.18269 m 0.81099,-2.51744 c 0.6195,0 1.10947,-0.27596 1.46992,-0.82789 l 0,-3.88599 c -0.42803,-0.39422 -0.9349,-0.59134 -1.52061,-0.59135 -0.46182,10e-6 -0.85041,0.22529 -1.1658,0.67583 -0.31538,0.43929 -0.47308,1.08696 -0.47307,1.943 -1e-5,1.79093 0.56318,2.6864 1.68956,2.6864"
       id="path4590" />
    <path
       d="m 436.33335,741.03101 0,-9.85015 3.0581,0 0,9.85015 -3.0581,0 m 1.5375,-11.21869 c -0.51814,10e-6 -0.94616,-0.14642 -1.28407,-0.43929 -0.32665,-0.29284 -0.48997,-0.67018 -0.48997,-1.132 0,-0.4618 0.16332,-0.83914 0.48997,-1.13201 0.33791,-0.30411 0.76593,-0.45617 1.28407,-0.45618 0.50686,10e-6 0.92362,0.15207 1.25027,0.45618 0.32665,0.29287 0.48997,0.67021 0.48998,1.13201 -1e-5,0.46182 -0.16333,0.83916 -0.48998,1.132 -0.32665,0.29287 -0.74341,0.4393 -1.25027,0.43929"
       id="path4592" />
    <path
       d="m 448.10959,727.31177 -0.54066,2.26401 c -0.34918,-0.13515 -0.68709,-0.20274 -1.01373,-0.20275 -0.72089,10e-6 -1.08133,0.45056 -1.08132,1.35165 l 0,0.45618 1.74025,0 0,2.41608 -1.74025,0 0,7.43407 -3.0919,0 0,-7.43407 -1.30096,0 0,-2.28091 1.30096,-0.11827 0,-0.3886 c 0,-1.13763 0.29849,-2.06125 0.89547,-2.77088 0.60824,-0.72087 1.55439,-1.08131 2.83846,-1.08132 0.68708,10e-6 1.35164,0.11828 1.99368,0.35481"
       id="path4594" />
    <path
       d="m 455.003,727.31177 -0.54066,2.26401 c -0.34918,-0.13515 -0.68709,-0.20274 -1.01373,-0.20275 -0.72089,10e-6 -1.08133,0.45056 -1.08132,1.35165 l 0,0.45618 1.74025,0 0,2.41608 -1.74025,0 0,7.43407 -3.0919,0 0,-7.43407 -1.30096,0 0,-2.28091 1.30096,-0.11827 0,-0.3886 c 0,-1.13763 0.29849,-2.06125 0.89547,-2.77088 0.60824,-0.72087 1.55439,-1.08131 2.83846,-1.08132 0.68708,10e-6 1.35164,0.11828 1.99368,0.35481"
       id="path4596" />
    <path
       d="m 460.10548,741.26754 c -1.45303,0 -2.65261,-0.46181 -3.59876,-1.38544 -0.9349,-0.92362 -1.40234,-2.17953 -1.40234,-3.76772 0,-1.53186 0.46181,-2.7765 1.38544,-3.73393 0.93489,-0.95741 2.02747,-1.43612 3.27775,-1.43613 1.36291,1e-5 2.4048,0.4393 3.12569,1.31786 0.73213,0.87858 1.0982,2.02748 1.09821,3.44671 -10e-6,0.57445 -0.0451,1.00811 -0.13516,1.30096 l -5.7783,0 c 0.25906,1.27281 1.07568,1.90921 2.44986,1.9092 0.68708,10e-6 1.3798,-0.20837 2.07816,-0.62513 l 1.03063,1.85851 c -1.03627,0.74341 -2.21333,1.11511 -3.53118,1.11511 m -2.07816,-6.25137 3.36223,0 c -10e-6,-1.1489 -0.51814,-1.72335 -1.5544,-1.72336 -0.45055,10e-6 -0.83915,0.14644 -1.1658,0.43929 -0.32665,0.29286 -0.54066,0.72089 -0.64203,1.28407"
       id="path4598" />
    <path
       d="m 465.96825,741.03101 0,-9.85015 2.50056,0 0.20274,1.72336 0.0845,0 c 0.34917,-0.63077 0.77156,-1.11511 1.26717,-1.45303 0.50687,-0.3379 1.01373,-0.50686 1.52061,-0.50687 0.4956,1e-5 0.89546,0.0676 1.19959,0.20275 l -0.52377,2.65261 c -0.4055,-0.10136 -0.76031,-0.15205 -1.06442,-0.15206 -0.4055,1e-5 -0.79973,0.14081 -1.18269,0.42239 -0.38298,0.2816 -0.69836,0.72652 -0.94616,1.33476 l 0,5.62624 -3.05811,0"
       id="path4600" />
    <path
       d="m 478.45411,741.26754 c -1.45302,0 -2.65261,-0.46181 -3.59876,-1.38544 -0.93489,-0.92362 -1.40234,-2.17953 -1.40234,-3.76772 0,-1.53186 0.46181,-2.7765 1.38544,-3.73393 0.93489,-0.95741 2.02747,-1.43612 3.27775,-1.43613 1.36291,1e-5 2.4048,0.4393 3.12569,1.31786 0.73213,0.87858 1.09821,2.02748 1.09822,3.44671 -10e-6,0.57445 -0.0451,1.00811 -0.13517,1.30096 l -5.7783,0 c 0.25906,1.27281 1.07568,1.90921 2.44986,1.9092 0.68709,10e-6 1.37981,-0.20837 2.07817,-0.62513 l 1.03063,1.85851 c -1.03627,0.74341 -2.21333,1.11511 -3.53119,1.11511 m -2.07816,-6.25137 3.36223,0 c -10e-6,-1.1489 -0.51814,-1.72335 -1.5544,-1.72336 -0.45055,10e-6 -0.83915,0.14644 -1.16579,0.43929 -0.32666,0.29286 -0.54067,0.72089 -0.64204,1.28407"
       id="path4602" />
    <path
       d="m 484.3169,741.03101 0,-9.85015 2.50055,0 0.20274,1.23338 0.0845,0 c 1.00247,-0.97993 2.05,-1.46991 3.14259,-1.46992 2.03872,1e-5 3.05809,1.33477 3.0581,4.00426 l 0,6.08243 -3.075,0 0,-5.71072 c -1e-5,-0.65329 -0.0901,-1.10384 -0.27033,-1.35165 -0.18023,-0.25906 -0.47308,-0.38859 -0.87857,-0.3886 -0.32666,10e-6 -0.60825,0.0676 -0.84478,0.20275 -0.23655,0.13517 -0.52377,0.36044 -0.86168,0.67582 l 0,6.5724 -3.0581,0"
       id="path4604" />
    <path
       d="m 499.57363,741.26754 c -1.18269,0 -2.06127,-0.34354 -2.63571,-1.03063 -0.56319,-0.68708 -0.84479,-1.63887 -0.84478,-2.85536 l 0,-3.78461 -1.33476,0 0,-2.28091 1.52061,-0.13517 0.33791,-2.58503 2.56813,0 0,2.58503 2.3147,0 0,2.41608 -2.3147,0 0,3.75082 c 0,1.01374 0.41113,1.52061 1.23338,1.52061 0.21401,0 0.51813,-0.0563 0.91237,-0.16896 l 0.47307,2.21333 c -0.81099,0.23654 -1.5544,0.3548 -2.23022,0.3548"
       id="path4606" />
    <path
       d="m 510.30235,741.26754 c -0.64204,0 -1.31223,-0.1239 -2.01058,-0.3717 -0.68709,-0.25906 -1.27844,-0.59698 -1.77404,-1.01374 l 1.35165,-1.9092 c 0.88983,0.68709 1.72335,1.03063 2.50055,1.03063 0.77719,0 1.16579,-0.25906 1.1658,-0.7772 -10e-6,-0.0788 -0.0169,-0.15205 -0.0507,-0.21964 -0.0338,-0.0788 -0.0901,-0.15206 -0.16895,-0.21964 -0.0789,-0.0676 -0.1577,-0.1239 -0.23654,-0.16896 -0.0676,-0.0563 -0.1746,-0.11263 -0.32102,-0.16895 -0.13517,-0.0676 -0.25344,-0.11827 -0.35481,-0.15206 -0.0901,-0.0451 -0.22528,-0.10137 -0.40549,-0.16896 -0.18023,-0.0676 -0.32102,-0.1239 -0.42239,-0.16896 -1.71209,-0.68708 -2.56814,-1.65013 -2.56814,-2.88915 0,-0.93488 0.34918,-1.68955 1.04753,-2.26401 0.70961,-0.57444 1.63324,-0.86167 2.77088,-0.86168 1.20522,1e-5 2.37665,0.4224 3.51429,1.26718 l -1.36854,1.82472 c -0.77721,-0.55191 -1.45866,-0.82788 -2.04437,-0.82788 -0.69836,0 -1.04754,0.23654 -1.04753,0.70961 -1e-5,0.0789 0.0169,0.1577 0.0507,0.23654 0.0338,0.0676 0.0845,0.13517 0.15207,0.20275 0.0788,0.0563 0.15205,0.10701 0.21964,0.15206 0.0788,0.0451 0.18585,0.0957 0.32102,0.15206 0.14642,0.0563 0.26469,0.10701 0.3548,0.15206 0.0901,0.0338 0.22527,0.0845 0.4055,0.15206 0.18021,0.0563 0.32101,0.10138 0.42239,0.13517 0.36043,0.13517 0.67018,0.27596 0.92926,0.42239 0.27032,0.14643 0.54065,0.33228 0.81099,0.55755 0.27032,0.22528 0.4787,0.50687 0.62513,0.84478 0.14642,0.33792 0.21964,0.71525 0.21965,1.13201 -1e-5,0.94615 -0.35482,1.71772 -1.06443,2.3147 -0.70962,0.59698 -1.71772,0.89546 -3.02431,0.89546"
       id="path4608" />
    <path
       d="m 520.62557,741.26754 c -1.45303,0 -2.65261,-0.46181 -3.59877,-1.38544 -0.93489,-0.92362 -1.40233,-2.17953 -1.40233,-3.76772 0,-1.53186 0.46181,-2.7765 1.38544,-3.73393 0.93489,-0.95741 2.02747,-1.43612 3.27775,-1.43613 1.3629,1e-5 2.4048,0.4393 3.12569,1.31786 0.73213,0.87858 1.0982,2.02748 1.09821,3.44671 -10e-6,0.57445 -0.0451,1.00811 -0.13516,1.30096 l -5.7783,0 c 0.25906,1.27281 1.07568,1.90921 2.44986,1.9092 0.68708,10e-6 1.3798,-0.20837 2.07816,-0.62513 l 1.03063,1.85851 c -1.03627,0.74341 -2.21333,1.11511 -3.53118,1.11511 m -2.07816,-6.25137 3.36223,0 c -10e-6,-1.1489 -0.51814,-1.72335 -1.5544,-1.72336 -0.45055,10e-6 -0.83915,0.14644 -1.1658,0.43929 -0.32665,0.29286 -0.54066,0.72089 -0.64203,1.28407"
       id="path4610" />
    <path
       d="m 530.35744,741.26754 c -1.1827,0 -2.06127,-0.34354 -2.63572,-1.03063 -0.56319,-0.68708 -0.84478,-1.63887 -0.84478,-2.85536 l 0,-3.78461 -1.33475,0 0,-2.28091 1.5206,-0.13517 0.33792,-2.58503 2.56813,0 0,2.58503 2.3147,0 0,2.41608 -2.3147,0 0,3.75082 c -10e-6,1.01374 0.41112,1.52061 1.23338,1.52061 0.214,0 0.51813,-0.0563 0.91236,-0.16896 l 0.47308,2.21333 c -0.811,0.23654 -1.5544,0.3548 -2.23022,0.3548"
       id="path4612" />
    <path
       d="m 538.06185,741.26754 c -1.1827,0 -2.06127,-0.34354 -2.63572,-1.03063 -0.56319,-0.68708 -0.84478,-1.63887 -0.84478,-2.85536 l 0,-3.78461 -1.33475,0 0,-2.28091 1.5206,-0.13517 0.33791,-2.58503 2.56814,0 0,2.58503 2.3147,0 0,2.41608 -2.3147,0 0,3.75082 c -1e-5,1.01374 0.41112,1.52061 1.23338,1.52061 0.214,0 0.51812,-0.0563 0.91236,-0.16896 l 0.47308,2.21333 c -0.811,0.23654 -1.55441,0.3548 -2.23022,0.3548"
       id="path4614" />
    <path
       d="m 541.89714,741.03101 0,-9.85015 3.05811,0 0,9.85015 -3.05811,0 m 1.5375,-11.21869 c -0.51813,10e-6 -0.94615,-0.14642 -1.28406,-0.43929 -0.32665,-0.29284 -0.48998,-0.67018 -0.48998,-1.132 0,-0.4618 0.16333,-0.83914 0.48998,-1.13201 0.33791,-0.30411 0.76593,-0.45617 1.28406,-0.45618 0.50687,10e-6 0.92363,0.15207 1.25028,0.45618 0.32664,0.29287 0.48997,0.67021 0.48997,1.13201 0,0.46182 -0.16333,0.83916 -0.48997,1.132 -0.32665,0.29287 -0.74341,0.4393 -1.25028,0.43929"
       id="path4616" />
    <path
       d="m 547.4389,741.03101 0,-9.85015 2.50056,0 0.20274,1.23338 0.0845,0 c 1.00247,-0.97993 2.05,-1.46991 3.14259,-1.46992 2.03872,1e-5 3.05809,1.33477 3.0581,4.00426 l 0,6.08243 -3.075,0 0,-5.71072 c -10e-6,-0.65329 -0.0901,-1.10384 -0.27033,-1.35165 -0.18023,-0.25906 -0.47308,-0.38859 -0.87857,-0.3886 -0.32666,10e-6 -0.60825,0.0676 -0.84478,0.20275 -0.23655,0.13517 -0.52377,0.36044 -0.86168,0.67582 l 0,6.5724 -3.05811,0"
       id="path4618" />
    <path
       d="m 562.35774,745.17043 c -1.21649,0 -2.21333,-0.20838 -2.99053,-0.62514 -0.76593,-0.40549 -1.1489,-1.025 -1.1489,-1.85851 0,-0.79973 0.46745,-1.44176 1.40234,-1.9261 l 0,-0.10138 c -0.59698,-0.38296 -0.89547,-0.94615 -0.89547,-1.68956 0,-0.70961 0.36044,-1.31785 1.08132,-1.82473 l 0,-0.0676 c -0.38297,-0.27032 -0.70399,-0.62513 -0.96305,-1.06442 -0.2478,-0.45055 -0.3717,-0.94615 -0.3717,-1.48682 0,-1.13763 0.39986,-2.0162 1.19958,-2.63571 0.79973,-0.63076 1.77404,-0.94615 2.92295,-0.94616 0.56318,10e-6 1.08131,0.0789 1.55439,0.23654 l 3.61566,0 0,2.23022 -1.5206,0 c 0.18021,0.3154 0.27032,0.71526 0.27033,1.19959 -10e-6,1.09259 -0.36608,1.92048 -1.09822,2.48366 -0.72088,0.55192 -1.6614,0.82789 -2.82156,0.82788 -0.31539,10e-6 -0.70399,-0.0619 -1.1658,-0.18585 -0.20275,0.19149 -0.30413,0.42239 -0.30412,0.69272 -10e-6,0.43929 0.48433,0.65893 1.45302,0.65893 l 1.5544,0 c 2.52307,0 3.7846,0.84478 3.78461,2.53434 -10e-6,1.04753 -0.50687,1.89794 -1.5206,2.55124 -1.00248,0.66456 -2.3485,0.99684 -4.03805,0.99684 m 1.48681,-10.64424 c 0,-0.48433 -0.11827,-0.85603 -0.35481,-1.11511 -0.22528,-0.27032 -0.52377,-0.40548 -0.89546,-0.40549 -0.37171,10e-6 -0.67583,0.13517 -0.91237,0.40549 -0.22528,0.25908 -0.33791,0.63078 -0.33791,1.11511 0,0.49561 0.11263,0.87858 0.33791,1.14891 0.23654,0.25907 0.54066,0.3886 0.91237,0.3886 0.37169,0 0.67018,-0.12953 0.89546,-0.3886 0.23654,-0.27033 0.35481,-0.6533 0.35481,-1.14891 m -1.01374,8.71814 c 0.63077,0 1.14327,-0.10137 1.53751,-0.30412 0.40548,-0.20275 0.60823,-0.46181 0.60824,-0.7772 -10e-6,-0.28159 -0.11828,-0.47308 -0.35481,-0.57445 -0.22528,-0.0901 -0.58572,-0.13516 -1.08132,-0.13516 l -0.92926,0 c -0.60824,0 -1.07569,-0.0451 -1.40233,-0.13517 -0.31539,0.28159 -0.47308,0.58008 -0.47308,0.89547 0,0.68709 0.69835,1.03063 2.09505,1.03063"
       id="path4620" />
    <path
       d="m 572.41063,741.26754 c -0.64203,0 -1.31223,-0.1239 -2.01058,-0.3717 -0.68709,-0.25906 -1.27843,-0.59698 -1.77404,-1.01374 l 1.35165,-1.9092 c 0.88984,0.68709 1.72335,1.03063 2.50055,1.03063 0.7772,0 1.1658,-0.25906 1.1658,-0.7772 0,-0.0788 -0.0169,-0.15205 -0.0507,-0.21964 -0.0338,-0.0788 -0.0901,-0.15206 -0.16896,-0.21964 -0.0788,-0.0676 -0.1577,-0.1239 -0.23654,-0.16896 -0.0676,-0.0563 -0.17459,-0.11263 -0.32102,-0.16895 -0.13517,-0.0676 -0.25343,-0.11827 -0.3548,-0.15206 -0.0901,-0.0451 -0.22528,-0.10137 -0.4055,-0.16896 -0.18022,-0.0676 -0.32102,-0.1239 -0.42239,-0.16896 -1.71209,-0.68708 -2.56813,-1.65013 -2.56813,-2.88915 0,-0.93488 0.34917,-1.68955 1.04753,-2.26401 0.70961,-0.57444 1.63323,-0.86167 2.77088,-0.86168 1.20521,1e-5 2.37664,0.4224 3.51428,1.26718 l -1.36854,1.82472 c -0.7772,-0.55191 -1.45866,-0.82788 -2.04437,-0.82788 -0.69836,0 -1.04753,0.23654 -1.04753,0.70961 0,0.0789 0.0169,0.1577 0.0507,0.23654 0.0338,0.0676 0.0845,0.13517 0.15206,0.20275 0.0788,0.0563 0.15206,0.10701 0.21964,0.15206 0.0788,0.0451 0.18585,0.0957 0.32102,0.15206 0.14642,0.0563 0.26469,0.10701 0.35481,0.15206 0.0901,0.0338 0.22527,0.0845 0.40549,0.15206 0.18022,0.0563 0.32101,0.10138 0.42239,0.13517 0.36044,0.13517 0.67019,0.27596 0.92926,0.42239 0.27032,0.14643 0.54065,0.33228 0.81099,0.55755 0.27032,0.22528 0.4787,0.50687 0.62514,0.84478 0.14642,0.33792 0.21963,0.71525 0.21964,1.13201 -10e-6,0.94615 -0.35481,1.71772 -1.06442,2.3147 -0.70962,0.59698 -1.71773,0.89546 -3.02432,0.89546"
       id="path4622" />
    <path
       d="m 580.08123,741.26754 c -0.52939,0 -0.96868,-0.18022 -1.31785,-0.54066 -0.33792,-0.3717 -0.50687,-0.82788 -0.50687,-1.36854 0,-0.52939 0.16895,-0.97994 0.50687,-1.35165 0.34917,-0.3717 0.78846,-0.55755 1.31785,-0.55755 0.51813,0 0.95179,0.18585 1.30097,0.55755 0.36043,0.37171 0.54065,0.82226 0.54066,1.35165 -10e-6,0.5294 -0.18023,0.97995 -0.54066,1.35165 -0.34918,0.3717 -0.78284,0.55755 -1.30097,0.55755"
       id="path4624" />
  </g>
</svg>
